<svg width="24" height="24" viewBox="0 0 24 24" fill="none" xmlns="http://www.w3.org/2000/svg">
<g id="ant-design:whats-app-outlined">
<path id="Vector" d="M16.7228 14.0599C16.4673 13.9287 15.1946 13.3052 14.9579 13.2208C14.7212 13.1318 14.5478 13.0896 14.3767 13.3521C14.2032 13.6123 13.711 14.1912 13.5563 14.3669C13.4063 14.5404 13.254 14.5615 12.9985 14.4326C11.4798 13.6732 10.4837 13.0779 9.48291 11.3599C9.21807 10.9029 9.74775 10.9357 10.2423 9.94897C10.3267 9.77554 10.2845 9.62788 10.2188 9.49663C10.1532 9.36538 9.6376 8.09507 9.42197 7.5771C9.21338 7.07319 8.99775 7.14351 8.84072 7.13413C8.69072 7.12476 8.51963 7.12476 8.34619 7.12476C8.17275 7.12476 7.89385 7.19038 7.65713 7.44585C7.42041 7.70601 6.75244 8.33179 6.75244 9.6021C6.75244 10.8724 7.67822 12.1029 7.80478 12.2763C7.93603 12.4498 9.62588 15.056 12.2204 16.1787C13.861 16.8865 14.5032 16.9474 15.3235 16.8255C15.8228 16.7505 16.8517 16.2021 17.0649 15.5951C17.2782 14.9904 17.2782 14.4724 17.2149 14.3646C17.1517 14.2498 16.9782 14.1841 16.7228 14.0599Z" fill="#414141"/>
<path id="Vector_2" d="M21.6843 7.93101C21.1546 6.67241 20.3952 5.54272 19.4272 4.57241C18.4593 3.60444 17.3296 2.84272 16.0686 2.31538C14.7796 1.77397 13.4108 1.49976 11.9999 1.49976H11.953C10.5327 1.50679 9.15692 1.78804 7.86317 2.34116C6.61395 2.87554 5.49364 3.63491 4.53505 4.60288C3.57645 5.57085 2.82411 6.69585 2.3038 7.94976C1.76473 9.24819 1.49286 10.6287 1.49989 12.049C1.50692 13.6755 1.89598 15.2904 2.62489 16.7341V20.2966C2.62489 20.8919 3.1077 21.3748 3.70301 21.3748H7.26786C8.71161 22.1037 10.3265 22.4927 11.953 22.4998H12.0022C13.4061 22.4998 14.7679 22.2279 16.0499 21.6959C17.3038 21.1732 18.4311 20.4232 19.3968 19.4646C20.3647 18.506 21.1265 17.3857 21.6585 16.1365C22.2116 14.8427 22.4929 13.4669 22.4999 12.0466C22.5069 10.6193 22.2304 9.23413 21.6843 7.93101ZM18.1429 18.1966C16.4999 19.8232 14.3202 20.7185 11.9999 20.7185H11.96C10.5468 20.7115 9.14286 20.3599 7.90301 19.699L7.70614 19.5935H4.40614V16.2935L4.30067 16.0966C3.63973 14.8568 3.28817 13.4529 3.28114 12.0396C3.27176 9.70288 4.16473 7.50913 5.80301 5.85679C7.43895 4.20444 9.62567 3.29038 11.9624 3.28101H12.0022C13.1741 3.28101 14.3108 3.50835 15.3819 3.95835C16.4272 4.39663 17.3647 5.0271 18.171 5.83335C18.9749 6.63726 19.6077 7.5771 20.046 8.62241C20.5007 9.70522 20.728 10.8537 20.7233 12.0396C20.7093 14.374 19.7929 16.5607 18.1429 18.1966Z" fill="#414141"/>
</g>
</svg>
